<?xml version="1.0" encoding="utf-8"?>
<!-- Generator: Adobe Illustrator 16.0.0, SVG Export Plug-In . SVG Version: 6.00 Build 0)  -->
<!DOCTYPE svg PUBLIC "-//W3C//DTD SVG 1.1//EN" "http://www.w3.org/Graphics/SVG/1.1/DTD/svg11.dtd">
<svg version="1.1" id="Calque_1" xmlns="http://www.w3.org/2000/svg" xmlns:xlink="http://www.w3.org/1999/xlink" x="0px" y="0px"
	 width="475px" height="475px" viewBox="0 0 475 475" enable-background="new 0 0 752 752" xml:space="preserve">
<polygon points="118.347,0 118.347,118.714 0,118.705 0,0.001 "/>
<polygon points="355.854,0 355.854,118.714 237.414,118.705 237.414,0.001 "/>
<polygon points="237.147,118.714 237.147,237.429 118.799,237.418 118.799,118.716 "/>
<polygon points="474.201,118.714 474.201,237.429 355.854,237.418 355.854,118.716 "/>
<polygon points="118.661,237.783 118.661,356.497 0.313,356.487 0.313,237.784 "/>
<polygon points="356.167,237.783 356.167,356.497 237.727,356.487 237.727,237.784 "/>
<polygon points="237.46,356.497 237.46,475.211 119.113,475.201 119.113,356.499 "/>
<polygon points="474.514,356.497 474.514,475.211 356.167,475.201 356.167,356.499 "/>
</svg>
