<?xml version="1.0" encoding="utf-8"?>
<!-- Generator: Adobe Illustrator 16.0.0, SVG Export Plug-In . SVG Version: 6.00 Build 0)  -->
<!DOCTYPE svg PUBLIC "-//W3C//DTD SVG 1.1//EN" "http://www.w3.org/Graphics/SVG/1.1/DTD/svg11.dtd">
<svg version="1.1" id="Calque_1" xmlns="http://www.w3.org/2000/svg" xmlns:xlink="http://www.w3.org/1999/xlink" x="0px" y="0px"
	 width="379px" height="379px" viewBox="0 0 379 379" enable-background="new 0 0 752 752" xml:space="preserve">
<polygon fill="#CC0000" points="94.639,0 94.639,94.719 0.213,94.711 0.213,0.001 "/>
<polygon fill="#0099FF" points="189.564,0 189.564,94.719 94.713,94.711 94.713,0.001 "/>
<polygon fill="#FFCC00" points="284.139,0 284.139,94.719 189.639,94.711 189.639,0.001 "/>
<polygon fill="#66FF33" points="378.773,0 378.773,94.719 284.213,94.711 284.213,0.001 "/>
<polygon fill="#66FF33" points="284.168,94.719 284.168,189.438 189.609,189.43 189.609,94.72 "/>
<polygon fill="#0099FF" points="378.918,189.438 378.918,284.157 284.067,284.149 284.067,189.438 "/>
<polygon fill="#FFCC00" points="284.139,189.437 284.139,284.157 189.639,284.149 189.639,189.438 "/>
<polygon fill="#FFCC00" points="94.676,284.157 94.676,378.875 0.176,378.869 0.176,284.157 "/>
<polygon fill="#0099FF" points="189.565,284.157 189.565,378.875 94.713,378.869 94.713,284.157 "/>
<polygon fill="#CC0099" points="284.102,284.157 284.102,378.875 189.676,378.869 189.676,284.157 "/>
<polygon fill="#CC0000" points="378.705,284.157 378.705,378.875 284.28,378.869 284.28,284.157 "/>
<polygon fill="#66FF33" points="94.706,94.719 94.706,189.438 0.146,189.43 0.146,94.719 "/>
<polygon fill="#CC0099" points="189.352,94.719 189.352,189.438 94.926,189.43 94.926,94.72 "/>
<polygon fill="#CC0000" points="189.352,189.438 189.352,284.157 94.926,284.149 94.926,189.438 "/>
<polygon fill="#0099FF" points="94.852,189.437 94.852,284.157 0,284.149 0,189.437 "/>
<polygon fill="#FFCC00" points="378.744,94.719 378.744,189.438 284.244,189.43 284.244,94.719 "/>
</svg>
